# xmcd
#
# Track frame offsets:
#	150
#	12151
#	26002
#	35842
#	45666
#	56877
#	67473
#	79354
#	93032
#	105408
#	120232
#	132427
#	145847
#	158817
#	174457
#	189257
#	202575
#	217500
#	232733
#	254079
#
# Disc length: 3541 seconds
#
# Revision: 1
# Processed by: cddbd v1.5.2PL0 Copyright (c) Steve Scherf et al.
# Submitted via: audiograbber 1.83.01
#
DISCID=0a0dd314
DTITLE=Country énekesek - Örökzöld Countryzene CD2
DYEAR=2007
DGENRE=Country
TTITLE0=Bobby Sykes - Your Cheatin' Heart
TTITLE1=The Kendalls - Crying Time
TTITLE2=Hank Locklin - Please Help Me I'm falling
TTITLE3=Ray Price - Make The World Go Away
TTITLE4=Patsy Cline - Cry Not For Me
TTITLE5=Roger Miller - When Two Worlds Collide
TTITLE6=Waylon Jennings - Crying
TTITLE7=Brenda Lee - Nobody Wins
TTITLE8=Charlie Rich - Behind Closed Doors
TTITLE9=Kenny Rogers - Crazy
TTITLE10=Glen Campbell - Since I Fell For You
TTITLE11=Mickey Gilley - True Love Ways
TTITLE12=Jimmy Lawton - You're My Best Friend
TTITLE13=Kenny Rogers - Through The Years
TTITLE14=Todd McCain - He Stopped Loving her Today
TTITLE15=Mickey Gilley - Room Full of Roses
TTITLE16=John Denver - For You
TTITLE17=Don Williams - 'Til The Rivers All Run Dry
TTITLE18=Kenny Rogers - Always And Forever
TTITLE19=Jimmy Lawton - Adios Amigo
EXTD=
EXTT0=
EXTT1=
EXTT2=
EXTT3=
EXTT4=
EXTT5=
EXTT6=
EXTT7=
EXTT8=
EXTT9=
EXTT10=
EXTT11=
EXTT12=
EXTT13=
EXTT14=
EXTT15=
EXTT16=
EXTT17=
EXTT18=
EXTT19=
PLAYORDER=
